<svg xmlns="http://www.w3.org/2000/svg" xmlns:xlink="http://www.w3.org/1999/xlink" viewBox="0 0 1198.313 615"><defs><style>.a{fill:#f7f7f8;}.b{clip-path:url(#a);}.c{fill:#fff;}.d{fill:#e0e0e0;}.e{fill:#c4c4c4;}</style><clipPath id="a"><path class="a" d="M0,0H1198.313V615H0Z"/></clipPath></defs><g transform="translate(-644 -336)"><path class="a" d="M0,0H1198.313V615H0Z" transform="translate(644 336)"/><g class="b" transform="translate(644 336)"><g transform="translate(-72.563 -109.133)"><path class="c" d="M10.287.213,185.655,3.845a10.817,10.817,0,0,1,10.5,10.5,9.787,9.787,0,0,1-10.074,10.074L10.713,20.787a10.817,10.817,0,0,1-10.5-10.5A9.787,9.787,0,0,1,10.287.213Z" transform="translate(1172.264 315) rotate(45)"/><path class="c" d="M10.287.213,322.814,6.686a10.817,10.817,0,0,1,10.5,10.5A9.787,9.787,0,0,1,323.24,27.26L10.713,20.787a10.817,10.817,0,0,1-10.5-10.5A9.787,9.787,0,0,1,10.287.213Z" transform="translate(14.247 163) rotate(45)"/><path class="d" d="M10.287.213,322.814,6.686a10.817,10.817,0,0,1,10.5,10.5A9.787,9.787,0,0,1,323.24,27.26L10.713,20.787a10.817,10.817,0,0,1-10.5-10.5A9.787,9.787,0,0,1,10.287.213Z" transform="translate(94.838 176) rotate(45)"/><path class="e" d="M10.287.213,322.814,6.686a10.817,10.817,0,0,1,10.5,10.5A9.787,9.787,0,0,1,323.24,27.26L10.713,20.787a10.817,10.817,0,0,1-10.5-10.5A9.787,9.787,0,0,1,10.287.213Z" transform="translate(81.406 88) rotate(45)"/><path class="e" d="M10.287.213,185.655,3.845a10.817,10.817,0,0,1,10.5,10.5,9.787,9.787,0,0,1-10.074,10.074L10.713,20.787a10.817,10.817,0,0,1-10.5-10.5A9.787,9.787,0,0,1,10.287.213Z" transform="translate(258.898 418) rotate(45)"/><path class="c" d="M10.287.213,185.655,3.845a10.817,10.817,0,0,1,10.5,10.5,9.787,9.787,0,0,1-10.074,10.074L10.713,20.787a10.817,10.817,0,0,1-10.5-10.5A9.787,9.787,0,0,1,10.287.213Z" transform="translate(128.417 361) rotate(45)"/><path class="d" d="M10.287.213,322.814,6.686a10.817,10.817,0,0,1,10.5,10.5A9.787,9.787,0,0,1,323.24,27.26L10.713,20.787a10.817,10.817,0,0,1-10.5-10.5A9.787,9.787,0,0,1,10.287.213Z" transform="translate(203.252 504) rotate(45)"/><path class="c" d="M10.287.213,322.814,6.686a10.817,10.817,0,0,1,10.5,10.5A9.787,9.787,0,0,1,323.24,27.26L10.713,20.787a10.817,10.817,0,0,1-10.5-10.5A9.787,9.787,0,0,1,10.287.213Z" transform="translate(283.843 517) rotate(45)"/><path class="e" d="M10.287.213,322.814,6.686a10.817,10.817,0,0,1,10.5,10.5A9.787,9.787,0,0,1,323.24,27.26L10.713,20.787a10.817,10.817,0,0,1-10.5-10.5A9.787,9.787,0,0,1,10.287.213Z" transform="translate(928.572 75) rotate(45)"/><path class="d" d="M10.287.213,322.814,6.686a10.817,10.817,0,0,1,10.5,10.5A9.787,9.787,0,0,1,323.24,27.26L10.713,20.787a10.817,10.817,0,0,1-10.5-10.5A9.787,9.787,0,0,1,10.287.213Z" transform="translate(1009.163 88) rotate(45)"/><path class="c" d="M10.287.213,322.814,6.686a10.817,10.817,0,0,1,10.5,10.5A9.787,9.787,0,0,1,323.24,27.26L10.713,20.787a10.817,10.817,0,0,1-10.5-10.5A9.787,9.787,0,0,1,10.287.213Z" transform="translate(995.731 0) rotate(45)"/><path class="c" d="M10.287.213,185.655,3.845a10.817,10.817,0,0,1,10.5,10.5,9.787,9.787,0,0,1-10.074,10.074L10.713,20.787a10.817,10.817,0,0,1-10.5-10.5A9.787,9.787,0,0,1,10.287.213Z" transform="translate(1042.742 273) rotate(45)"/><path class="e" d="M10.287.213l77.4,1.6a10.817,10.817,0,0,1,10.5,10.5A9.787,9.787,0,0,1,88.11,22.39l-77.4-1.6a10.817,10.817,0,0,1-10.5-10.5A9.787,9.787,0,0,1,10.287.213Z" transform="translate(1201.046 431) rotate(45)"/><path class="e" d="M10.287.213l77.4,1.6a10.817,10.817,0,0,1,10.5,10.5A9.787,9.787,0,0,1,88.11,22.39l-77.4-1.6a10.817,10.817,0,0,1-10.5-10.5A9.787,9.787,0,0,1,10.287.213Z" transform="translate(121.701 425) rotate(45)"/><path class="d" d="M10.287.213l77.4,1.6a10.817,10.817,0,0,1,10.5,10.5A9.787,9.787,0,0,1,88.11,22.39l-77.4-1.6a10.817,10.817,0,0,1-10.5-10.5A9.787,9.787,0,0,1,10.287.213Z" transform="translate(151.443 510) rotate(45)"/></g></g></g></svg>